<svg width="193" height="40" viewBox="0 0 193 40" fill="none" xmlns="http://www.w3.org/2000/svg">
<path d="M56.9639 21.304C56.9639 19.96 57.2279 18.768 57.7559 17.728C58.2999 16.688 59.0359 15.888 59.9639 15.328C60.8919 14.768 61.9239 14.488 63.0599 14.488C63.9239 14.488 64.7479 14.68 65.5319 15.064C66.3159 15.432 66.9399 15.928 67.4039 16.552V10.24H70.8119V28H67.4039V26.032C66.9879 26.688 66.4039 27.216 65.6519 27.616C64.8999 28.016 64.0279 28.216 63.0359 28.216C61.9159 28.216 60.8919 27.928 59.9639 27.352C59.0359 26.776 58.2999 25.968 57.7559 24.928C57.2279 23.872 56.9639 22.664 56.9639 21.304ZM67.4279 21.352C67.4279 20.536 67.2679 19.84 66.9479 19.264C66.6279 18.672 66.1959 18.224 65.6519 17.92C65.1079 17.6 64.5239 17.44 63.8999 17.44C63.2759 17.44 62.6999 17.592 62.1719 17.896C61.6439 18.2 61.2119 18.648 60.8759 19.24C60.5559 19.816 60.3959 20.504 60.3959 21.304C60.3959 22.104 60.5559 22.808 60.8759 23.416C61.2119 24.008 61.6439 24.464 62.1719 24.784C62.7159 25.104 63.2919 25.264 63.8999 25.264C64.5239 25.264 65.1079 25.112 65.6519 24.808C66.1959 24.488 66.6279 24.04 66.9479 23.464C67.2679 22.872 67.4279 22.168 67.4279 21.352Z" fill="white"/>
<path d="M86.4535 21.064C86.4535 21.544 86.4215 21.976 86.3575 22.36H76.6375C76.7175 23.32 77.0535 24.072 77.6455 24.616C78.2375 25.16 78.9655 25.432 79.8295 25.432C81.0775 25.432 81.9655 24.896 82.4935 23.824H86.1175C85.7335 25.104 84.9975 26.16 83.9095 26.992C82.8215 27.808 81.4855 28.216 79.9015 28.216C78.6215 28.216 77.4695 27.936 76.4455 27.376C75.4375 26.8 74.6455 25.992 74.0695 24.952C73.5095 23.912 73.2295 22.712 73.2295 21.352C73.2295 19.976 73.5095 18.768 74.0695 17.728C74.6295 16.688 75.4135 15.888 76.4215 15.328C77.4295 14.768 78.5895 14.488 79.9015 14.488C81.1655 14.488 82.2935 14.76 83.2855 15.304C84.2935 15.848 85.0695 16.624 85.6135 17.632C86.1735 18.624 86.4535 19.768 86.4535 21.064ZM82.9735 20.104C82.9575 19.24 82.6455 18.552 82.0375 18.04C81.4295 17.512 80.6855 17.248 79.8055 17.248C78.9735 17.248 78.2695 17.504 77.6935 18.016C77.1335 18.512 76.7895 19.208 76.6615 20.104H82.9735Z" fill="white"/>
<path d="M94.45 24.904L97.81 14.704H101.386L96.466 28H92.386L87.49 14.704H91.09L94.45 24.904Z" fill="white"/>
<path d="M125.504 14.512C127.136 14.512 128.448 15.016 129.44 16.024C130.448 17.016 130.952 18.408 130.952 20.2V28H127.592V20.656C127.592 19.616 127.328 18.824 126.8 18.28C126.272 17.72 125.552 17.44 124.64 17.44C123.728 17.44 123 17.72 122.456 18.28C121.928 18.824 121.664 19.616 121.664 20.656V28H118.304V20.656C118.304 19.616 118.04 18.824 117.512 18.28C116.984 17.72 116.264 17.44 115.352 17.44C114.424 17.44 113.688 17.72 113.144 18.28C112.616 18.824 112.352 19.616 112.352 20.656V28H108.992V14.704H112.352V16.312C112.784 15.752 113.336 15.312 114.008 14.992C114.696 14.672 115.448 14.512 116.264 14.512C117.304 14.512 118.232 14.736 119.048 15.184C119.864 15.616 120.496 16.24 120.944 17.056C121.376 16.288 122 15.672 122.816 15.208C123.648 14.744 124.544 14.512 125.504 14.512Z" fill="white"/>
<path d="M140.044 28.216C138.764 28.216 137.612 27.936 136.588 27.376C135.564 26.8 134.756 25.992 134.164 24.952C133.588 23.912 133.3 22.712 133.3 21.352C133.3 19.992 133.596 18.792 134.188 17.752C134.796 16.712 135.62 15.912 136.66 15.352C137.7 14.776 138.86 14.488 140.14 14.488C141.42 14.488 142.58 14.776 143.62 15.352C144.66 15.912 145.476 16.712 146.068 17.752C146.676 18.792 146.98 19.992 146.98 21.352C146.98 22.712 146.668 23.912 146.044 24.952C145.436 25.992 144.604 26.8 143.548 27.376C142.508 27.936 141.34 28.216 140.044 28.216ZM140.044 25.288C140.652 25.288 141.22 25.144 141.748 24.856C142.292 24.552 142.724 24.104 143.044 23.512C143.364 22.92 143.524 22.2 143.524 21.352C143.524 20.088 143.188 19.12 142.516 18.448C141.86 17.76 141.052 17.416 140.092 17.416C139.132 17.416 138.324 17.76 137.668 18.448C137.028 19.12 136.708 20.088 136.708 21.352C136.708 22.616 137.02 23.592 137.644 24.28C138.284 24.952 139.084 25.288 140.044 25.288Z" fill="white"/>
<path d="M156.813 14.512C158.397 14.512 159.677 15.016 160.653 16.024C161.629 17.016 162.117 18.408 162.117 20.2V28H158.757V20.656C158.757 19.6 158.493 18.792 157.965 18.232C157.437 17.656 156.717 17.368 155.805 17.368C154.877 17.368 154.141 17.656 153.597 18.232C153.069 18.792 152.805 19.6 152.805 20.656V28H149.445V14.704H152.805V16.36C153.253 15.784 153.821 15.336 154.509 15.016C155.213 14.68 155.981 14.512 156.813 14.512Z" fill="white"/>
<path d="M177.672 21.064C177.672 21.544 177.64 21.976 177.576 22.36H167.856C167.936 23.32 168.272 24.072 168.864 24.616C169.456 25.16 170.184 25.432 171.048 25.432C172.296 25.432 173.184 24.896 173.712 23.824H177.336C176.952 25.104 176.216 26.16 175.128 26.992C174.04 27.808 172.704 28.216 171.12 28.216C169.84 28.216 168.688 27.936 167.664 27.376C166.656 26.8 165.864 25.992 165.288 24.952C164.728 23.912 164.448 22.712 164.448 21.352C164.448 19.976 164.728 18.768 165.288 17.728C165.848 16.688 166.632 15.888 167.64 15.328C168.648 14.768 169.808 14.488 171.12 14.488C172.384 14.488 173.512 14.76 174.504 15.304C175.512 15.848 176.288 16.624 176.832 17.632C177.392 18.624 177.672 19.768 177.672 21.064ZM174.192 20.104C174.176 19.24 173.864 18.552 173.256 18.04C172.648 17.512 171.904 17.248 171.024 17.248C170.192 17.248 169.488 17.504 168.912 18.016C168.352 18.512 168.008 19.208 167.88 20.104H174.192Z" fill="white"/>
<path d="M192.845 14.704L184.613 34.288H181.037L183.917 27.664L178.589 14.704H182.357L185.789 23.992L189.269 14.704H192.845Z" fill="white"/>
<path d="M34.1422 5.85781C30.3647 2.08031 25.3422 0 20 0C14.6578 0 9.63531 2.08031 5.85781 5.85781C2.08031 9.63531 0 14.6578 0 20C0 25.3422 2.08039 30.3646 5.85781 34.1422C9.63523 37.9198 14.6578 40 20 40C25.3422 40 30.3647 37.9197 34.1422 34.1422C37.9197 30.3647 40 25.3422 40 20C40 14.6578 37.9196 9.63539 34.1422 5.85781Z" fill="#33CC95"/>
<g clip-path="url(#clip0)">
<path d="M20.5714 8V33.1429" stroke="white" stroke-width="2" stroke-linecap="round" stroke-linejoin="round"/>
<path d="M26.2857 12.5714H17.7143C16.6534 12.5714 15.636 12.9929 14.8859 13.743C14.1357 14.4931 13.7143 15.5106 13.7143 16.5714C13.7143 17.6323 14.1357 18.6497 14.8859 19.3999C15.636 20.15 16.6534 20.5714 17.7143 20.5714H23.4286C24.4894 20.5714 25.5069 20.9929 26.257 21.743C27.0072 22.4932 27.4286 23.5106 27.4286 24.5714C27.4286 25.6323 27.0072 26.6497 26.257 27.3999C25.5069 28.15 24.4894 28.5714 23.4286 28.5714H13.7143" stroke="white" stroke-width="2" stroke-linecap="round" stroke-linejoin="round"/>
</g>
<defs>
<clipPath id="clip0">
<rect width="27.4286" height="27.4286" fill="white" transform="translate(6.85715 6.85714)"/>
</clipPath>
</defs>
</svg>
